# xmcd
#
# Track frame offsets: 
#        150
#        12349
#        29076
#        42192
#        55706
#        69416
#        82107
#        97220
#        107825
#        120949
#        127215
#
# Disc length: 1876 seconds
#
# Revision: 0
# Processed by: cddbd v1.5.2PL0 Copyright (c) Steve Scherf et al.
# Submitted via: ExactAudioCopy v0.99pb3
#
DISCID=9807520b
DTITLE=The Goddamn Gallows - Gutterbilly Blues [CD]
DYEAR=1900
DGENRE=
TTITLE0=A Sinner's Song
TTITLE1=Everybody Lies
TTITLE2=Save Us
TTITLE3=Gutterbilly Blues
TTITLE4=Wherever I go
TTITLE5=I Got a Woman
TTITLE6=Born 2 Lie
TTITLE7=Face the Day
TTITLE8=Saint O' Killers
TTITLE9=Don't Feed Me
TTITLE10=Tired
EXTD=
EXTT0=
EXTT1=
EXTT2=
EXTT3=
EXTT4=
EXTT5=
EXTT6=
EXTT7=
EXTT8=
EXTT9=
EXTT10=
PLAYORDER=
